<?xml version="1.0" encoding="UTF-8" standalone="no"?>
<!-- Created with Inkscape (http://www.inkscape.org/) -->

<svg
   version="1.1"
   id="svg2"
   width="200"
   height="200"
   viewBox="0 0 200 200"
   xmlns="http://www.w3.org/2000/svg"
   xmlns:svg="http://www.w3.org/2000/svg">
  <defs
     id="defs6" />
  <g
     id="g8">
    <path
       style="fill:#010101;stroke:none"
       d="m 21.981366,37.532103 v 42.000002 h 42 V 37.532103 h -42 m 60,0 v 6 h -6 v 6 h -6 v 6 h 6 v 12 h 6 v 12.000002 h 6 v 6 h 6 v 6 h -6 v 6 h -6 v -6 h -6 V 73.532103 h -6 v 12.000002 h -24 v 6 h 18 v 6 h -12 v 5.999995 h 18 v 6 h -30 V 85.532105 h -18 v 6 h 12 v 6 h -6 V 109.5321 h -6 v 13 h 6 v 6 h -6 v 6 h 6 v 6 h 12 v -6 h 6 v 6 h 6 v -6 h -6 v -6 h 18 v 6 h -6 v 6 h 6 v -6 h 6 v 30 h 6 v 6 h -6 v 18 h 6 v -12 h 6 v 12 h 6 v -6 h 6 v 6 h 7.000004 v -6 h -7.000004 v -6 h -6 v -6 h 6 v -12 h 13.000004 v 6 h 6 v 24 h 12 v -12 h -6 v -12 h 6 v 6 h 6 v -6 h 6 v 6 h 6 v 12 h -6 v -6 h -6 v 6 h 6 v 6 h 6 v -6 h 12 v -6 h -6 v -6 h 12 v -6 h 12 v -24 h -12 v 24 h -6 v -30 h -6 v -6 h -6 v -6 h -6 v -6 h 6 v -13 h 6 v -5.999995 h -12 v -12 h -12 V 73.532103 h -6 v -6 h 6 v -24 h -6 v -6 h -12 v 6 h -6 v 6 h 6 v 6 h 6 v 12 h -12 v -12 h -7.000004 v -6 h -6 v 6 h 6 v 12 h -12 v -12 h -6 v -6 h 6 v -6 h 6 v -6 h -6 m 49.000004,0 v 42.000002 h 42 V 37.532103 h -42 m -73.000004,6 v 30 h -30 v -30 h 30 m 109.000004,0 v 30 h -30 v -30 h 30 m -133.000004,6 v 18 h 18 v -18 h -18 m 109.000004,0 v 18 h 18 v -18 h -18 m -49.000004,24 v 6.000002 h 7.000004 v -6.000002 h 6 v 6.000002 h 6 v -6.000002 h 6 v 24.000002 h 6 v -6 h 6 V 103.5321 h -12 v 6 h -6 v 7 h 18 v 18 h -12 v -6 h -6 v 6 h -6 v -6 h -6 v 6 h -7.000004 v 6 h -6 v -6 h 6 v -6 h -12 v 18 h 6 v 6 h 6 v 6 h -6 v 12 h -6 v -6 h -6 v -6 h 12 v -6 h -12 v -18 h -6 v -6 h -6 v -6 h -12 v -6 h 18 v -7 h 12 v 7 h -6 v 6 h 18 v -13 h -6 v -6 h 6 v 6 h 7.000004 v 13 h 6 v 6 h 6 v -12 h -6 v -13 h 6 V 85.532105 h -6 v -6 h -6 v 6 h -7.000004 v -6 h -6 v -6.000002 h 6 m 61.000004,12.000002 v 6 h 6 v -6 h -6 m 12,6 v 6 h -12 v 5.999995 h 6 v 13 h 6 v 6 h -12 v -13 h -6 v 13 h 6 v 6 h 6 v 6 h 6 v -6 h 6 v -19 h -6 v -6 h 6 V 91.532105 h -6 m -85.000004,6 v 5.999995 h -6 v -5.999995 h 6 m -42,11.999995 v 13 h 6 v 6 h -6 v 6 h -12 v -6 h 12 v -6 h -6 v -6 h -6 v -7 h 12 m 103.000004,19 v 6 h -6 v -6 h 6 m -36,12 v 12 h -6 v -12 h 6 m 12,0 v 6 h -6 v -6 h 6 m 24,0 v 18 h -18 v -18 h 18 m -121.000004,6 v 42 h 42 v -42 h -42 m 109.000004,0 v 6 h 6 v -6 h -6 m -73.000004,6 v 30 h -30 v -30 h 30 m 61.000004,0 v 12 h -6 v -12 h 6 m -85.000004,6 v 18 h 18 v -18 h -18 m 67.000004,12 v 6 h 6 v -6 h -6 m 66,0 v 6 h -6 v 12 h 12 v -6 h -6 v -6 h 6 v -6 z"
       id="path2619" />
  </g>
</svg>
