<?xml version="1.0" encoding="UTF-8" standalone="no"?>
<!-- Created with Inkscape (http://www.inkscape.org/) -->

<svg
   width="210mm"
   height="297mm"
   viewBox="0 0 210 297"
   version="1.1"
   id="svg5"
   inkscape:version="1.1.1 (3bf5ae0d25, 2021-09-20, custom)"
   sodipodi:docname="qr.svg"
   xmlns:inkscape="http://www.inkscape.org/namespaces/inkscape"
   xmlns:sodipodi="http://sodipodi.sourceforge.net/DTD/sodipodi-0.dtd"
   xmlns="http://www.w3.org/2000/svg"
   xmlns:svg="http://www.w3.org/2000/svg">
  <sodipodi:namedview
     id="namedview7"
     pagecolor="#ffffff"
     bordercolor="#999999"
     borderopacity="1"
     inkscape:pageshadow="0"
     inkscape:pageopacity="0"
     inkscape:pagecheckerboard="0"
     inkscape:document-units="mm"
     showgrid="false"
     inkscape:zoom="0.54488788"
     inkscape:cx="649.67494"
     inkscape:cy="445.04569"
     inkscape:window-width="1918"
     inkscape:window-height="1026"
     inkscape:window-x="0"
     inkscape:window-y="26"
     inkscape:window-maximized="1"
     inkscape:current-layer="layer1" />
  <defs
     id="defs2" />
  <g
     inkscape:label="Capa 1"
     inkscape:groupmode="layer"
     id="layer1">
    <path
       style="fill:#000000;fill-opacity:1;stroke:#000000;stroke-width:0.264583;stroke-opacity:1"
       d="m 27.729382,186.88456 v -19.97604 h 19.97604 19.97604 v 19.97604 19.97604 h -19.97604 -19.97604 z m 33.60208,0 v -13.62604 h -13.62604 -13.62604 v 13.62604 13.62604 h 13.62604 13.62604 z m -22.225,0 v -8.59896 h 8.59896 8.59896 v 8.59896 8.59896 h -8.59896 -8.59896 z m 34.13125,16.93333 v -2.77812 l 5.6224,-0.0562 c 3.09231,-0.0309 4.34247,-0.0945 2.77812,-0.14124 l -2.84427,-0.0851 v -2.76917 -2.76918 h 5.55625 5.55625 v 2.76887 2.76887 l -2.71198,0.0858 -2.71198,0.0857 2.71198,0.0558 2.71198,0.0558 v 2.77812 2.77813 h -8.33437 -8.33438 z m 22.48958,0 v -2.77812 l 5.622398,-5.3e-4 5.62239,-5.3e-4 -0.0832,2.77868 -0.0832,2.77863 h -5.53922 -5.539228 z m 22.754168,0 v -2.77812 h 5.55625 5.55625 v 2.77812 2.77813 h -5.55625 -5.55625 z m 22.70505,-5.3e-4 -0.0832,-2.77868 h 2.77812 2.77813 l -0.0832,2.77868 -0.0832,2.77866 h -2.61179 -2.61178 l -0.0832,-2.77869 z m 16.98245,5.3e-4 v -2.77812 h 5.55625 5.55625 v 2.77812 2.77813 h -5.55625 -5.55625 z m 22.48958,0 v -2.77812 h 2.77813 2.77812 v 2.77812 2.77813 h -2.77812 -2.77813 z m -84.931248,-5.82083 v -2.77813 h -2.77812 -2.77813 v -2.77812 -2.77813 h 8.33438 8.334368 v 2.77813 2.77812 h 2.91042 2.91042 v 2.77813 2.77812 h -8.46667 -8.466668 z m 28.310418,0 v -2.77813 h -2.77812 -2.77813 v -2.77812 -2.77813 h 2.77813 2.77812 v -2.91041 -2.91042 h -2.76887 -2.76886 l -0.0857,-2.71198 -0.0858,-2.71198 -0.0558,2.71198 -0.0558,2.71198 h -2.63658 -2.63657 l -0.0858,-2.71198 c -0.0472,-1.49159 -0.11086,-0.2456 -0.14155,2.76887 l -0.0558,5.48085 -2.58089,0.0754 c -1.4195,0.0415 -3.91981,0.0382 -5.55626,-0.007 l -2.97535,-0.0827 v -2.62933 -2.62933 h 2.77812 2.77813 v -2.91041 -2.91042 h 2.91042 2.91041 v -2.77813 -2.77812 h 2.64584 2.64583 v 2.77812 2.77813 h 5.68854 5.68854 v 5.54699 5.547 l -2.71198,0.0857 -2.71198,0.0857 2.70303,0.0558 2.70303,0.0558 0.085,2.84427 0.0851,2.84427 0.0562,-2.84427 0.0562,-2.84427 h 2.77812 2.77813 v 2.77813 2.77812 l 2.84427,0.0159 c 1.56435,0.009 4.06466,0.002 5.55625,-0.0147 l 2.71198,-0.0306 v 2.79284 2.79285 h -8.32512 -8.32512 l -0.0858,-2.71198 -0.0858,-2.71198 -0.0558,2.71198 -0.0558,2.71196 h -2.77812 -2.77813 z m 39.6875,-5.68854 v -8.46667 h -2.77812 -2.77813 v -2.77813 -2.77812 h 2.77813 2.77812 v -2.77813 -2.77812 H 174.97 186.21479 v 2.77812 2.77813 h -5.54699 -5.54699 l -0.0858,-2.71198 -0.0857,-2.71198 -0.0558,2.71198 -0.0558,2.71198 h -2.78707 -2.78708 l 0.0751,2.84427 0.0751,2.84427 2.71198,0.0754 2.71198,0.0754 v 2.62732 2.62732 l -2.71198,0.0857 -2.71198,0.0857 2.71198,0.0558 2.71198,0.0558 v 2.77813 2.77812 h -2.77812 -2.77813 v 2.77813 2.77812 h -2.77812 -2.77813 z m 4.29948,-2.8409 c -0.76398,-0.0534 -2.01414,-0.0534 -2.77812,0 -0.76399,0.0534 -0.13891,0.0972 1.38906,0.0972 1.52797,0 2.15304,-0.0437 1.38906,-0.0972 z m 12.63385,8.52944 v -2.77813 h -2.77812 -2.77813 v -2.77812 -2.77813 h 2.77813 2.77812 v 2.77813 2.77812 h 2.77813 2.77812 v 2.77813 2.77812 h -2.77812 -2.77813 z m -33.86666,-5.55625 v -2.77813 h 2.77812 2.77813 v 2.77813 2.77812 H 149.57 146.79188 Z m 39.6875,0 v -2.77813 h 2.77812 2.77813 v 2.77813 2.77812 h -2.77813 -2.77812 z m -110.529688,-2.98552 -2.71198,-0.0751 v -2.63689 -2.63688 h 5.55625 5.55625 v 2.62881 2.62881 l -2.84427,0.0832 c -1.56435,0.0457 -4.06466,0.0494 -5.55625,0.008 z m 59.465108,-2.70302 v -2.64584 h 2.77812 2.77813 v 2.64584 2.64583 h -2.77813 -2.77812 z m 16.93333,-0.1323 v -2.77812 h -2.76887 -2.76887 l -0.0857,-2.71198 -0.0857,-2.71198 -0.0558,2.71198 -0.0558,2.71198 h -2.64584 -2.64583 v -5.55625 -5.55625 l 2.71198,-5.3e-4 2.71198,-5.3e-4 -0.0832,2.77868 -0.0832,2.77869 h 5.70556 5.70557 v 5.55625 5.55625 h -2.77813 -2.77812 v -2.77813 z m 22.75416,0.1323 v -2.64584 h 5.55625 5.55625 v 2.64584 2.64583 h -5.55625 -5.55625 z m -90.487498,-5.54064 c 0,-1.44662 -0.11207,-2.69948 -0.24904,-2.78414 -0.13698,-0.0847 -2.69682,-0.15392 -5.68855,-0.15392 h -5.43949 v -2.77211 -2.77211 l 5.6224,-0.0562 c 3.09231,-0.0309 4.34247,-0.0945 2.77812,-0.14125 l -2.84427,-0.085 v -2.76917 -2.76917 h 2.92744 2.92744 l -0.0832,-2.77869 -0.0832,-2.77868 2.84427,5.3e-4 2.84427,5.9e-4 -0.0558,-5.6224 c -0.0307,-3.09232 -0.0944,-4.402 -0.14155,-2.91042 l -0.0857,2.71198 h -2.76886 -2.76887 v 2.76887 2.76887 l -2.5809,0.0754 c -1.41949,0.0415 -3.9198,0.0382 -5.55625,-0.007 l -2.97535,-0.0827 v -5.53974 -5.53975 h 2.77812 2.77813 v -2.77812 -2.77813 h 2.77812 2.77813 v 2.77813 2.77812 h 5.68854 5.68854 v -2.91041 -2.91042 h -2.76887 -2.76886 l -0.0858,-2.71198 -0.0858,-2.71198 -0.0558,2.71198 -0.0558,2.71198 h -2.63658 -2.63658 l -0.0754,-2.71198 -0.0754,-2.71198 h -2.91041 -2.91042 l -0.0754,2.71198 -0.0754,2.71198 h -5.54699 -5.547 v -2.77812 -2.77813 h -2.77812 -2.77813 v -2.77812 -2.77813 h 2.77813 2.77812 v 2.77813 2.77812 h 2.91042 2.91042 v -2.77812 -2.77813 h 11.24479 11.24479 v 2.77813 2.77812 h 2.77812 2.778128 v 2.76887 2.76887 l -2.711978,0.0857 c -1.49159,0.0472 -0.24886,0.11085 2.761618,0.14154 l 5.4736,0.0558 0.0827,2.97536 c 0.0455,1.63645 0.0487,4.13676 0.007,5.55625 l -0.0754,2.58089 h -5.547 -5.546988 v 2.76887 2.76887 l -2.71198,0.0858 -2.71198,0.0857 2.71198,0.0558 2.71198,0.0558 v 5.55625 5.55625 h -2.76883 -2.76886 l -0.0858,-2.71198 -0.0858,-2.71198 -0.0558,2.70272 -0.0558,2.70272 -2.71198,0.0857 -2.71198,0.0858 2.71198,0.0558 2.71198,0.0558 v 2.77812 2.77813 h 5.68854 5.688538 v 2.77812 2.77813 h -5.546988 -5.54699 l -0.0858,-2.71198 -0.0858,-2.71198 -0.0558,2.71198 -0.0558,2.71198 h -2.64584 -2.64583 z m 5.48673,-18.33801 c -0.0534,-0.76398 -0.0972,-0.13891 -0.0972,1.38906 0,1.52797 0.0437,2.15305 0.0972,1.38907 0.0534,-0.76399 0.0534,-2.01414 0,-2.77813 z m 0,-28.31041 c -0.0534,-0.76399 -0.0972,-0.13891 -0.0972,1.38906 0,1.52797 0.0437,2.15304 0.0972,1.38906 0.0534,-0.76398 0.0534,-2.01414 0,-2.77812 z m 11.446608,40.94426 v -2.77812 l 2.71198,-5.3e-4 2.71197,-5.3e-4 -0.0832,2.77868 -0.0832,2.77869 h -2.62881 -2.62881 v -2.77813 z m 28.31042,0.009 v -2.78738 h 2.78738 2.78738 l -0.0754,2.71198 -0.0754,2.71198 -2.71197,0.0754 -2.71198,0.0754 z m -28.31042,-8.60821 v -5.55625 l 2.71198,-5.3e-4 2.71197,-5.3e-4 -0.0832,2.77868 -0.0832,2.77868 h 2.92745 2.92744 v 2.77813 2.77812 h -5.55626 -5.55625 v -5.55625 z m 16.93333,-2.77813 v -8.33437 h 2.77813 2.77812 v 2.63657 2.63658 l -2.71198,0.0858 -2.71198,0.0857 2.71198,0.0558 2.71198,0.0558 v 5.55625 5.55625 h -2.77812 -2.77813 z m 11.37709,5.547 v -2.78739 l 2.71198,0.0754 2.71197,0.0754 0.0754,2.71198 0.0754,2.71198 h -2.78738 -2.78738 z m 11.32019,0.0754 -0.0754,-2.71198 -2.84427,-0.0751 -2.84427,-0.0751 v -2.76917 -2.76917 h 5.68854 5.68854 v -2.77813 -2.77812 h 5.55625 5.55625 v 2.64583 2.64583 h -5.37104 c -3.8247,0 -5.46245,0.0914 -5.68854,0.3175 -0.2261,0.2261 -0.3175,1.86384 -0.3175,5.68854 v 5.37105 h -2.63658 -2.63658 z m 11.22628,0 0.0754,-2.71198 2.71198,-0.0754 2.71198,-0.0754 v 2.78739 2.78738 h -2.78738 -2.78738 z m 11.32019,-2.99359 v -5.70556 l -2.77868,0.0832 -2.77868,0.0832 5.2e-4,-2.71198 5.9e-4,-2.71198 h 5.55625 5.55625 v 2.63657 2.63658 l -2.71198,0.0858 -2.71198,0.0857 2.71198,0.0558 2.71198,0.0558 v 5.55625 5.55625 h -2.77812 -2.77813 z m 16.93333,2.92744 v -2.77812 h -2.77812 -2.77813 v -2.77813 -2.77812 h 5.55625 5.55625 v 5.55625 5.55625 h -2.77812 -2.77813 z M 73.237712,164.13039 v -2.77812 l 2.71198,-5.3e-4 2.71198,-5.3e-4 -0.0832,2.77868 -0.0832,2.77868 h -2.62881 -2.62881 v -2.77812 z m 113.241668,0 v -2.77812 h 2.77812 2.77813 v 2.77812 2.77813 h -2.77813 -2.77812 z M 27.729382,158.44185 v -2.64583 h 2.77812 2.77813 v 2.64583 2.64583 h -2.77813 -2.77812 z m 11.37708,0 v -2.64583 h 2.77813 2.77812 v 2.64583 2.64583 h -2.77812 -2.77813 z m 11.32128,-2.84427 c -0.0307,-3.01956 -0.0944,-4.26971 -0.14154,-2.77813 l -0.0857,2.71198 h -2.63658 -2.63658 v -2.77812 -2.77813 l 5.6224,5.3e-4 5.62239,5.3e-4 -0.0832,-2.77868 -0.0832,-2.77863 h 2.79515 2.79515 v 5.55625 5.55625 h -2.77812 -2.77813 v 2.77813 2.77812 h -2.77812 -2.77813 z m 11.43289,2.84427 v -2.64583 h 2.77812 2.77813 v 2.64583 2.64583 h -2.77813 -2.77812 z m 45.243748,0 v -2.64583 h 2.77813 2.77812 v 2.64583 2.64583 h -2.77812 -2.77813 z m 5.82083,0 v -2.64583 h 2.64584 2.64583 v 2.64583 2.64583 h -2.64583 -2.64584 z m 28.25353,-0.0661 -0.0754,-2.71197 -2.84427,-0.0751 -2.84427,-0.0751 v -2.76917 -2.76918 h 5.55625 5.55625 v 5.55625 5.55625 h -2.63658 -2.63658 z m 33.92355,0.0661 v -2.64583 h 2.77813 2.77812 v 2.64583 2.64583 h -2.77812 -2.77813 z m -51.06458,-5.68854 v -2.77813 h 2.77813 2.77812 v 2.77813 2.77812 h -2.77812 -2.77813 z m 56.63259,-2.77813 8e-4,-5.55625 h 2.76289 2.76289 l 0.085,2.84427 0.0851,2.84428 0.0562,-2.84428 0.0562,-2.84427 h 2.77812 2.77813 v 5.55625 5.55625 h -2.76887 -2.76887 l -0.0857,-2.71198 -0.0857,-2.71197 -0.0558,2.71197 -0.0558,2.71198 h -2.77264 -2.77265 l 7.9e-4,-5.55625 z M 27.905772,149.79879 c -0.097,-0.097 -0.17639,-1.34716 -0.17639,-2.77812 v -2.60174 h 2.77812 2.77813 v 2.77813 2.77812 h -2.60174 c -1.43095,0 -2.68111,-0.0794 -2.77812,-0.17639 z m 11.20069,-2.60173 v -2.77813 h 2.77813 2.77812 v 2.77813 2.77812 h -2.77812 -2.77813 z m 22.75417,0 v -2.77813 h 5.55625 5.55625 v 2.77813 2.77812 h -5.55625 -5.55625 z m 90.663888,2.60173 c -0.097,-0.097 -0.17639,-1.34716 -0.17639,-2.77812 v -2.60174 h 2.77812 2.77813 v 2.77813 2.77812 h -2.60174 c -1.43095,0 -2.68111,-0.0794 -2.77812,-0.17639 z m 5.64444,-8.28102 v -8.47592 h 2.77813 2.77812 v 5.547 5.54699 l -2.71198,0.0857 -2.71198,0.0857 2.72124,0.0558 2.72123,0.0558 -0.0754,2.71198 -0.0754,2.71198 -2.71198,0.0754 -2.71198,0.0754 z M 33.550212,141.37623 v -2.77813 h 2.77813 2.77812 v -5.55625 -5.55625 h 2.77813 2.77812 v 2.63658 2.63657 l -2.71198,0.0857 -2.71198,0.0858 2.71198,0.0558 2.71198,0.0558 v 2.77813 2.77812 h -2.77812 -2.77813 v 2.77813 2.77812 h -2.77812 -2.77813 z m 73.554168,0 v -2.77813 h -2.77813 -2.77812 v -2.76917 -2.76918 l 2.84427,-0.0851 c 1.56435,-0.0468 0.25466,-0.11033 -2.91042,-0.14124 l -5.754688,-0.0562 v -2.77813 -2.77812 h -2.77812 -2.77813 v -5.55625 -5.55625 h 5.68854 5.688548 v -5.68854 -5.68854 l 2.71198,-5.3e-4 2.71197,-5.3e-4 -0.0832,2.77868 -0.0832,2.77868 h 2.92745 2.92744 v 2.77813 2.77812 h -2.91042 -2.91042 v 2.91042 2.91042 h 2.91042 2.91042 v 2.76887 2.76886 l -2.71198,0.0857 -2.71198,0.0857 2.71198,0.0558 2.71198,0.0557 v 2.63658 2.63657 l -2.71198,0.0857 -2.71198,0.0858 2.71198,0.0558 2.71198,0.0558 v 5.55625 5.55625 h -2.77812 -2.77814 z m -2.71198,-14.08806 c -1.56435,-0.0468 -4.1242,-0.0468 -5.688538,0 -1.56435,0.0468 -0.28443,0.085 2.844268,0.085 3.12869,0 4.40862,-0.0383 2.84427,-0.085 z m 14.08906,11.30993 v -5.55625 h 5.55625 5.55625 v 2.77813 2.77812 h -2.77812 -2.77813 v 2.77813 2.77812 h -2.77812 -2.77813 z m 33.86667,2.77813 V 138.5981 H 149.57 146.79188 l -0.0606,-14.08906 c -0.0333,-7.74899 -0.0952,-11.55899 -0.13755,-8.46667 l -0.077,5.6224 h -5.55099 -5.55098 v -2.77813 -2.77812 h 2.91936 2.91937 l -0.0751,-2.84427 -0.0751,-2.84427 -2.84427,-0.0751 -2.84427,-0.0751 v 2.78708 2.78707 h -2.77813 -2.77812 v -5.55624 -5.55625 h 8.33437 8.33438 v 2.77812 2.77813 h 5.68854 5.68854 v 2.77812 2.77812 h -2.77813 -2.77812 v 5.67929 5.67929 l -2.71198,0.0857 c -1.49159,0.0472 -0.24143,0.11086 2.77812,0.14155 l 5.49011,0.0558 v 2.64583 2.64584 l -5.49011,0.0558 c -3.01955,0.0307 -4.26971,0.0944 -2.77812,0.14155 l 2.71198,0.0857 v 2.76887 2.76887 h 2.77812 2.77813 v 2.77813 2.77812 h -2.77813 -2.77812 z m 17.19791,0 v -2.77813 h 2.64584 2.64583 v 2.77813 2.77812 h -2.64583 -2.64584 z m 16.93334,0 v -2.77813 h 2.77812 2.77813 v 2.77813 2.77812 h -2.77813 -2.77812 z m -51.06458,-5.55625 v -2.77813 h 2.77812 2.77813 v 2.77813 2.77812 h -2.77813 -2.77812 z m 45.24374,0 v -2.77813 h 2.77813 2.77812 v 2.77813 2.77812 h -2.77812 -2.77813 z M 56.039792,130.13143 v -2.64583 h 2.77813 2.77812 v 2.64583 2.64584 h -2.77812 -2.77813 z m 11.37709,0 v -2.64583 h 2.77812 2.77813 v 2.64583 2.64584 h -2.77813 -2.77812 z m 56.620828,0 v -2.64583 h 2.77813 2.77812 v 2.64583 2.64584 h -2.77812 -2.77813 z m 5.82084,0 v -2.64583 h 2.77812 2.77813 v 2.64583 2.64584 h -2.77813 -2.77812 z m 39.68749,0 v -2.64583 h 2.64584 2.64583 v 2.64583 2.64584 h -2.64583 -2.64584 z m 11.1125,0 v -2.64583 h 2.77813 2.77812 v 2.64583 2.64584 h -2.77812 -2.77813 z M 33.550212,124.44289 v -2.77812 h 2.77813 2.77812 v 2.77812 2.77813 h -2.77812 -2.77813 z m 22.50134,-2.77812 8e-4,-5.55625 h 2.77184 2.77185 v 2.77812 2.77813 h 2.91041 2.91042 v -2.77813 -2.77812 h 5.55625 5.55625 v 2.77812 2.77813 h 2.91042 2.91041 v 2.77812 2.77813 h -11.23553 -11.23554 l -0.0857,-2.71198 -0.0858,-2.71198 -0.0558,2.71198 -0.0558,2.71198 h -2.77264 -2.77265 l 7.9e-4,-5.55625 z m 113.494488,2.77812 v -2.77812 h 8.33438 8.33437 v 2.77812 2.77813 h -5.54699 -5.54699 l -0.0858,-2.71198 -0.0857,-2.71198 -0.0558,2.71198 -0.0558,2.71198 h -2.64583 -2.64584 z m 16.93334,0 v -2.77812 h 2.77812 2.77813 v 2.77812 2.77813 h -2.77813 -2.77812 z M 27.912042,121.49465 c -0.0936,-0.0936 -0.17047,-2.6534 -0.17091,-5.68854 l -7.9e-4,-5.51842 h 2.77264 2.77265 v 5.68854 5.68854 h -2.60174 c -1.43095,0 -2.67829,-0.0765 -2.77185,-0.17012 z m 56.64556,-2.67415 -0.0751,-2.84427 -2.84427,-0.0751 -2.84427,-0.0751 v -5.5473 -5.54729 h 5.55625 5.55625 v 8.46666 8.46667 h -2.63689 -2.63688 z m 73.611358,0.0754 v -2.78738 h 2.78738 2.78738 l -0.0754,2.71198 -0.0754,2.71198 -2.71198,0.0754 -2.71198,0.0754 z M 33.550212,110.28769 v -5.55625 h 2.77813 2.77812 v 5.55625 5.55624 h -2.77812 -2.77813 z m 11.37708,2.77812 v -2.77812 h 2.64584 2.64583 v 2.77812 2.77812 h -2.64583 -2.64584 z m 16.93334,0 v -2.77812 h 2.77812 2.77813 v 2.77812 2.77812 h -2.77813 -2.77812 z m 56.565028,-2.71198 c -0.0307,-3.01956 -0.0944,-4.26971 -0.14154,-2.77812 l -0.0858,2.71198 h -2.63658 -2.63658 v -2.77813 -2.77812 h 5.55625 5.55625 v 2.77812 2.77813 h 2.77813 2.77812 v 2.77812 2.77812 h -5.55625 -5.55625 z m 51.12038,2.71198 v -2.77812 h 2.64584 2.64583 v 2.77812 2.77812 h -2.64583 -2.64584 z m 11.1125,0 v -2.77812 h -2.77812 -2.77813 v -2.76918 -2.76917 l 2.84428,-0.085 2.84427,-0.085 -2.83502,-0.0562 -2.83501,-0.0562 -0.0858,-2.71198 -0.0857,-2.71198 -0.0558,2.71198 -0.0558,2.71198 h -2.64583 -2.64584 v -5.55625 -5.55625 h 2.64584 2.64583 v 2.77813 2.77812 l 2.97656,0.0159 c 1.63711,0.009 4.19696,0.002 5.68855,-0.0147 l 2.71197,-0.0306 v 2.78359 2.78358 l -2.71197,0.0857 -2.71198,0.0857 2.71198,0.0558 2.71197,0.0558 v 2.77812 2.77813 h 2.91042 2.91042 v 2.77812 2.77812 h -2.76887 -2.76887 l -0.0857,-2.71197 -0.0857,-2.71198 -0.0558,2.71198 -0.0558,2.71197 h -2.77812 -2.77813 z M 50.483542,107.50956 v -2.77812 h 5.55625 5.55625 v 2.77812 2.77813 h -5.55625 -5.55625 z m 107.685418,0 v -2.77812 h 5.55625 5.55625 v 2.77812 2.77813 h -5.55625 -5.55625 z M 44.927292,101.68873 V 98.9106 h -5.67928 -5.67929 l -0.0858,-2.71198 -0.0857,-2.71198 -0.0558,2.71198 -0.0558,2.71198 h -2.77264 -2.77264 l 7.9e-4,-5.55625 7.9e-4,-5.55625 h 2.77185 2.77186 v 2.77813 2.77812 h 5.82083 5.82083 V 90.57623 87.7981 h 2.63689 2.63688 l 0.0751,2.84427 c 0.0413,1.56435 0.0407,5.31482 -10e-4,8.33438 l -0.0764,5.4901 h -2.63562 -2.63562 v -2.77812 z m 16.93334,0 V 98.9106 h 2.77812 2.77813 v 2.77813 2.77812 h -2.77813 -2.77812 z m 33.86666,-2.77813 v -5.55625 h 2.77813 2.778118 v 5.55625 5.55625 h -2.778118 -2.77813 z m 39.687508,2.77813 V 98.9106 h 2.77812 2.77813 v 2.77813 2.77812 h -2.77813 -2.77812 z m 16.93333,0 V 98.9106 h -2.76887 -2.76887 l -0.0857,-2.71198 -0.0857,-2.71198 -0.0558,2.71198 -0.0558,2.71198 h -2.62881 -2.62881 l -0.0832,-2.77868 -0.0832,-2.77868 2.84427,5.3e-4 2.84427,5.2e-4 v -2.77812 -2.77813 h 2.77812 2.77813 v 2.77813 2.77812 h 2.77812 2.77813 v 5.55625 5.55625 h -2.77813 -2.77812 v -2.77812 z m -96.296578,-8.33438 8e-4,-5.55625 h 2.77184 2.77185 v 5.55625 5.55625 h -2.77265 -2.77265 l 8e-4,-5.55625 z m 17.18616,0 V 87.7981 h 5.55625 5.55625 v 2.64584 2.64583 l -2.71198,0.0313 c -1.49159,0.0172 -2.80128,0.0172 -2.91042,0 -0.10914,-0.0172 -0.18433,0.058 -0.1671,0.16711 0.0172,0.10914 0.0172,1.41882 0,2.91041 l -0.0313,2.71198 h -2.64583 -2.64584 z m 11.32796,2.77757 -0.0832,-2.77868 2.71198,5.3e-4 2.71198,5.2e-4 v 2.77813 2.77812 h -2.62881 -2.62881 l -0.0832,-2.77868 z M 118.48146,93.35435 V 87.7981 h 2.77813 2.77812 v 5.55625 5.55625 h -2.77812 -2.77813 z m 67.99792,2.77813 v -2.77813 h 2.77812 2.77813 v 2.77813 2.77812 h -2.77813 -2.77812 z m -124.619308,-5.6224 5.6e-4,-2.71198 h 2.77812 2.77813 v 2.62881 2.62881 l -2.77869,0.0832 -2.77868,0.0832 5.3e-4,-2.71198 z m 28.31041,-2.91041 5.6e-4,-5.6224 h 2.77813 2.77812 v -2.77813 -2.77812 h 2.77813 2.778118 v 5.55625 5.55625 h -2.778118 -2.77813 v 2.7611 2.7611 l -2.77868,0.0832 -2.77868,0.0832 5.3e-4,-5.62239 z m 14.089628,5.54729 -2.71198,-0.0751 v -2.63688 -2.63689 h 2.77812 2.77813 v -5.68854 -5.68854 h 2.77813 2.77812 v 8.31735 8.31735 l -2.84427,0.0832 c -1.56435,0.0457 -4.06467,0.0494 -5.55625,0.008 z m 31.15413,-2.63688 5.6e-4,-2.71198 h 2.77812 2.77813 v 2.62881 2.62881 l -2.77869,0.0832 -2.77868,0.0832 5.3e-4,-2.71198 z m 22.75416,0 5.6e-4,-2.71198 h 2.77813 2.77812 v 2.62881 2.62881 l -2.77868,0.0832 -2.77868,0.0832 5.2e-4,-2.71198 z m -73.609538,-8.53306 -0.0764,-5.55651 2.71198,2.6e-4 2.71198,2.5e-4 v 5.55625 5.55625 h -2.63562 -2.63561 z m 28.366348,2.77837 v -2.77812 h 2.64584 2.64583 v 2.77812 2.77813 h -2.64583 -2.64584 z m 11.1125,0 v -2.77812 h -2.77812 -2.77813 l -0.0558,-5.6224 c -0.0307,-3.09231 -0.0944,-4.402 -0.14154,-2.91041 l -0.0858,2.71198 h -2.62732 -2.62732 l -0.0858,-2.71198 -0.0858,-2.71198 -0.0558,2.71198 -0.0558,2.71198 h -2.77812 -2.77813 v -2.77813 -2.77812 h -2.77798 -2.77812 v -2.77813 -2.778117 h 2.77812 2.77813 v -5.688545 -5.688541 h 2.92744 2.92744 l -0.0832,-2.778683 -0.0832,-2.778683 5.6224,5.58e-4 5.62239,5.58e-4 v 2.778125 2.778125 h 2.77813 2.77812 v 2.778125 2.778125 h -2.77812 -2.77813 v -2.778125 -2.778125 h -2.76887 -2.76886 l -0.0857,-2.711979 c -0.0472,-1.491589 -0.11086,1.008724 -0.14155,5.55625 l -0.0558,8.268225 h -2.63658 -2.63657 l -0.0858,-2.711976 -0.0858,-2.711979 -0.0558,2.702724 -0.0558,2.702721 -2.71198,0.0858 -2.71198,0.0858 2.70303,0.0558 2.70303,0.0558 0.085,2.844267 0.085,2.84427 0.0562,-2.84427 0.0562,-2.844267 h 2.63689 2.63688 l 0.0851,2.844267 c 0.0468,1.56435 0.11034,0.31419 0.14124,-2.778127 l 0.0562,-5.622393 h 2.77813 2.77812 v 2.636578 2.636575 l -2.71198,0.0858 c -1.49158,0.0472 -0.24546,0.11086 2.76918,0.14155 l 5.48115,0.0558 0.085,2.844267 0.0851,2.84427 0.0562,-2.84427 0.0562,-2.844267 h 2.77812 2.77813 v 2.778117 2.77813 h 2.77812 2.77813 v 2.77812 2.77813 h -5.547 -5.54699 l -0.0858,-2.71198 -0.0858,-2.71198 -0.0558,2.71198 -0.0558,2.71198 -5.4901,0.0558 c -3.01956,0.0307 -4.26971,0.0944 -2.77813,0.14154 l 2.71198,0.0857 v 2.76887 2.76887 h 2.77813 2.77812 v 2.77812 2.77813 h -2.7779 -2.77813 z M 112.85569,55.188211 c -0.0534,-0.763984 -0.0972,-0.138906 -0.0972,1.389062 0,1.527969 0.0437,2.153047 0.0972,1.389063 0.0534,-0.763984 0.0534,-2.014141 0,-2.778125 z m 17.00286,26.789059 v -5.55625 h 2.77812 2.77813 v 5.55625 5.55625 h -2.77813 -2.77812 z m 11.32115,-2.5e-4 -0.0764,-5.55651 2.71198,2.6e-4 2.71198,2.5e-4 v 5.55625 5.55625 h -2.63562 -2.63562 z M 27.729382,62.265815 V 42.289774 h 19.97604 19.97604 V 62.265815 82.24185 h -19.97604 -19.97604 z m 33.60208,0 V 48.639774 H 47.705422 34.079382 V 62.265815 75.89185 h 13.62604 13.62604 z m -21.96042,0 V 53.93144 h 8.33438 8.33437 v 8.334375 8.334375 h -8.33437 -8.33438 z m 112.977088,0 V 42.289774 h 19.97604 19.97604 V 62.265815 82.24185 h -19.97604 -19.97604 z m 33.60208,0 V 48.639774 H 172.32417 158.69813 V 62.265815 75.89185 h 13.62604 13.62604 z m -22.225,0 v -8.598958 h 8.59896 8.59896 v 8.598958 8.598955 h -8.59896 -8.59896 z M 73.237712,79.19914 v -2.77812 l 2.71198,-5.3e-4 2.71198,-5.3e-4 -0.0832,2.77868 -0.0832,2.77869 h -2.62881 -2.62881 V 79.1992 Z m 0,-5.82083 v -2.77812 h 2.64583 2.64584 v 2.77812 2.77813 h -2.64584 -2.64583 z m 5.55625,-8.334367 V 59.48769 h 2.77813 2.77812 v 2.636578 2.636575 l -2.71198,0.0858 -2.71198,0.0858 2.71198,0.0558 2.71198,0.0558 v 2.778117 2.77813 h -2.77812 -2.77813 z m 62.441668,2.778117 v -2.778117 h 2.64583 2.64584 v 2.778117 2.77813 h -2.64584 -2.64583 z M 90.171042,62.133523 V 59.48769 h 2.77813 2.77812 v 2.645833 2.64583 h -2.77812 -2.77813 z m 39.687508,0 V 59.48769 h 2.77812 2.77813 v 2.645833 2.64583 h -2.77813 -2.77812 z m 5.55625,-5.688541 v -2.778125 h 5.55625 5.55625 v 2.778125 2.778125 h -5.55625 -5.55625 z M 95.727292,50.75644 v -2.910416 h -2.77812 -2.77813 v -2.776481 -2.776481 l 11.244788,0.0084 11.2448,0.0084 v 2.768102 2.768102 l -8.40052,0.0558 c -4.620288,0.03069 -7.180128,0.09439 -5.688548,0.141547 l 2.711978,0.08575 v 2.768869 2.768869 h -2.778118 -2.77813 z m -11.1125,-5.688541 v -2.778125 h 2.64584 2.64583 v 2.778125 2.778125 h -2.64583 -2.64584 z m 28.310418,0 v -2.778125 h 2.64584 2.64583 v 2.778125 2.778125 h -2.64583 -2.64584 z m 16.93334,0 v -2.778125 h 5.55625 5.55625 v 2.778125 2.778125 h -5.55625 -5.55625 z"
       id="path1447" />
  </g>
</svg>
